<mxfile host="app.diagrams.net" modified="2023-12-14T04:36:34.314Z" agent="Mozilla/5.0 (Macintosh; Intel Mac OS X 10_15_7) AppleWebKit/537.36 (KHTML, like Gecko) Chrome/111.0.0.0 Safari/537.36" etag="iyG4_7ogBmdeGITHmtcP" version="22.1.8" type="github">
  <diagram name="Page-1" id="4b0nw9e6-GkVLUaRTrmo">
    <mxGraphModel dx="1434" dy="723" grid="1" gridSize="10" guides="1" tooltips="1" connect="1" arrows="1" fold="1" page="1" pageScale="1" pageWidth="850" pageHeight="1100" math="0" shadow="0">
      <root>
        <mxCell id="0" />
        <mxCell id="1" parent="0" />
        <mxCell id="5GRiQvHn4u2mJJgED5Wx-2" value="" style="edgeStyle=orthogonalEdgeStyle;rounded=0;orthogonalLoop=1;jettySize=auto;html=1;" edge="1" parent="1" source="6ggwZfMJMtHscKxGf_Hm-1" target="5GRiQvHn4u2mJJgED5Wx-1">
          <mxGeometry relative="1" as="geometry" />
        </mxCell>
        <mxCell id="6ggwZfMJMtHscKxGf_Hm-1" value="start" style="ellipse;whiteSpace=wrap;html=1;" parent="1" vertex="1">
          <mxGeometry x="100" y="90" width="120" height="80" as="geometry" />
        </mxCell>
        <mxCell id="5GRiQvHn4u2mJJgED5Wx-4" value="" style="edgeStyle=orthogonalEdgeStyle;rounded=0;orthogonalLoop=1;jettySize=auto;html=1;" edge="1" parent="1" source="5GRiQvHn4u2mJJgED5Wx-1" target="5GRiQvHn4u2mJJgED5Wx-3">
          <mxGeometry relative="1" as="geometry" />
        </mxCell>
        <mxCell id="5GRiQvHn4u2mJJgED5Wx-1" value="input 3 scores" style="shape=parallelogram;perimeter=parallelogramPerimeter;whiteSpace=wrap;html=1;fixedSize=1;" vertex="1" parent="1">
          <mxGeometry x="100" y="210" width="120" height="60" as="geometry" />
        </mxCell>
        <mxCell id="5GRiQvHn4u2mJJgED5Wx-3" value="calcAvgScore" style="shape=process;whiteSpace=wrap;html=1;backgroundOutline=1;" vertex="1" parent="1">
          <mxGeometry x="100" y="310" width="120" height="60" as="geometry" />
        </mxCell>
        <mxCell id="5GRiQvHn4u2mJJgED5Wx-8" value="" style="edgeStyle=orthogonalEdgeStyle;rounded=0;orthogonalLoop=1;jettySize=auto;html=1;" edge="1" parent="1" source="5GRiQvHn4u2mJJgED5Wx-6">
          <mxGeometry relative="1" as="geometry">
            <mxPoint x="425" y="210" as="targetPoint" />
          </mxGeometry>
        </mxCell>
        <mxCell id="5GRiQvHn4u2mJJgED5Wx-6" value="calcAvgScore" style="ellipse;whiteSpace=wrap;html=1;" vertex="1" parent="1">
          <mxGeometry x="365" y="90" width="120" height="80" as="geometry" />
        </mxCell>
        <mxCell id="5GRiQvHn4u2mJJgED5Wx-13" value="" style="edgeStyle=orthogonalEdgeStyle;rounded=0;orthogonalLoop=1;jettySize=auto;html=1;" edge="1" parent="1" source="5GRiQvHn4u2mJJgED5Wx-9" target="5GRiQvHn4u2mJJgED5Wx-12">
          <mxGeometry relative="1" as="geometry" />
        </mxCell>
        <mxCell id="5GRiQvHn4u2mJJgED5Wx-16" value="" style="edgeStyle=orthogonalEdgeStyle;rounded=0;orthogonalLoop=1;jettySize=auto;html=1;" edge="1" parent="1" source="5GRiQvHn4u2mJJgED5Wx-9" target="5GRiQvHn4u2mJJgED5Wx-15">
          <mxGeometry relative="1" as="geometry" />
        </mxCell>
        <mxCell id="5GRiQvHn4u2mJJgED5Wx-9" value="average score &amp;gt;= 90" style="rhombus;whiteSpace=wrap;html=1;" vertex="1" parent="1">
          <mxGeometry x="352" y="210" width="146" height="120" as="geometry" />
        </mxCell>
        <mxCell id="5GRiQvHn4u2mJJgED5Wx-12" value="grade = &#39;A&#39;" style="rounded=0;whiteSpace=wrap;html=1;" vertex="1" parent="1">
          <mxGeometry x="230" y="400" width="120" height="60" as="geometry" />
        </mxCell>
        <mxCell id="5GRiQvHn4u2mJJgED5Wx-14" value="True" style="text;html=1;strokeColor=none;fillColor=none;align=center;verticalAlign=middle;whiteSpace=wrap;rounded=0;" vertex="1" parent="1">
          <mxGeometry x="280" y="240" width="60" height="30" as="geometry" />
        </mxCell>
        <mxCell id="5GRiQvHn4u2mJJgED5Wx-18" value="" style="edgeStyle=orthogonalEdgeStyle;rounded=0;orthogonalLoop=1;jettySize=auto;html=1;" edge="1" parent="1" source="5GRiQvHn4u2mJJgED5Wx-15" target="5GRiQvHn4u2mJJgED5Wx-17">
          <mxGeometry relative="1" as="geometry" />
        </mxCell>
        <mxCell id="5GRiQvHn4u2mJJgED5Wx-15" value="average score &amp;lt; 90 and average score &amp;gt;= 70" style="rhombus;whiteSpace=wrap;html=1;" vertex="1" parent="1">
          <mxGeometry x="520" y="380" width="150" height="150" as="geometry" />
        </mxCell>
        <mxCell id="5GRiQvHn4u2mJJgED5Wx-17" value="grade = &#39;B&#39;" style="whiteSpace=wrap;html=1;" vertex="1" parent="1">
          <mxGeometry x="378" y="580" width="120" height="60" as="geometry" />
        </mxCell>
      </root>
    </mxGraphModel>
  </diagram>
</mxfile>
